<svg width="345" height="308" viewBox="0 0 345 308" fill="none" xmlns="http://www.w3.org/2000/svg">
<path fill-rule="evenodd" clip-rule="evenodd" d="M86.242 5.15186C92.1182 1.77256 98.7836 -0.00431984 105.567 7.88648e-06H239.459C246.234 0.00469073 252.888 1.78585 258.755 5.16469C264.621 8.54355 269.492 13.4012 272.88 19.25L339.826 134.75C343.216 140.603 345 147.242 345 154C345 160.758 343.216 167.397 339.826 173.25L272.906 288.75C269.513 294.606 264.634 299.469 258.758 302.848C252.882 306.227 246.216 308.004 239.433 308H217.615C217.607 265.455 217.11 229.463 191.576 185.553C190.418 183.56 189.29 181.66 188.194 179.842C200.495 178.51 212.112 175.627 222.229 170.59C232.751 165.351 241.893 157.653 248.104 146.887C254.298 136.149 256.937 123.473 256.306 109.294C255.513 91.465 250.32 76.6438 240.798 65.4278C231.286 54.224 218.646 48.0216 205.491 45.2708C179.885 39.9162 150.228 47.0624 127.006 58.3314L117.198 63.0904L118.094 73.9464C121.018 109.409 124.317 129.404 130.311 145.006C88.7908 137.621 45.1988 121.194 21.044 107.36L72.0944 19.25C75.4865 13.3936 80.3659 8.53114 86.242 5.15186ZM5.09049 134.896C1.75514 140.713 0 147.298 0 154C0 160.758 1.78461 167.397 5.17444 173.25L72.1199 288.75C75.5078 294.599 80.3792 299.457 86.2452 302.835C92.1118 306.214 98.7661 307.995 105.541 308H185.769C185.744 265.908 184.992 237.568 164.04 201.534C158.874 192.651 154.413 185.774 150.429 179.814C150.091 179.783 149.754 179.752 149.416 179.721C97.2635 174.836 37.273 153.356 5.09049 134.896ZM161.951 138.087C157.284 128.144 153.901 114.805 150.835 82.6548C167.712 76.1894 185.421 73.5789 198.966 76.4115C206.732 78.0352 212.504 81.2873 216.511 86.0071C220.508 90.7147 223.939 98.2852 224.492 110.706C224.908 120.074 223.114 126.489 220.512 131C217.927 135.481 213.909 139.185 208.025 142.114C198.46 146.876 184.803 149.153 168.083 148.919C165.595 145.044 163.648 141.701 161.951 138.087Z" fill="#1C597C"/>
</svg>
