<svg width="48" height="50" viewBox="0 0 48 50" fill="none" xmlns="http://www.w3.org/2000/svg">
<path fill-rule="evenodd" clip-rule="evenodd" d="M40.0409 49.8895C40.0393 41.866 39.9456 35.0783 35.135 26.7974C34.9168 26.4217 34.7044 26.0631 34.4978 25.7203C36.8153 25.4693 39.004 24.9255 40.9102 23.9755C42.8926 22.9876 44.615 21.5357 45.7851 19.5054C46.9522 17.4805 47.4494 15.0899 47.3305 12.4159C47.1811 9.05361 46.2026 6.25843 44.4086 4.14325C42.6165 2.03034 40.235 0.860663 37.7566 0.341886C32.9323 -0.667922 27.3449 0.679775 22.9696 2.80493L21.1217 3.70245L21.2904 5.74979C21.8414 12.4375 22.4629 16.2083 23.5924 19.1506C15.7696 17.7581 7.55664 14.6601 3.00573 12.0512L0.015816 17.2166C0.0105232 17.2257 0.00525122 17.2349 0 17.2441C6.06336 20.7255 17.366 24.7762 27.1919 25.6975C27.2554 25.7035 27.319 25.7093 27.3826 25.715C28.1333 26.8392 28.9737 28.136 29.9469 29.8113C33.8946 36.6068 34.0361 41.9513 34.0408 49.8895H40.0409ZM29.5535 17.8459C28.6742 15.9709 28.0368 13.4552 27.459 7.39209C30.6388 6.17275 33.9754 5.68044 36.5274 6.21461C37.9904 6.52085 39.0779 7.13419 39.8328 8.02425C40.5858 8.91204 41.2323 10.3398 41.3364 12.6823C41.4149 14.4489 41.0769 15.6588 40.5867 16.5093C40.0996 17.3545 39.3427 18.053 38.2341 18.6054C36.4321 19.5034 33.859 19.9327 30.7088 19.8886C30.24 19.1579 29.8731 18.5275 29.5535 17.8459Z" fill="white"/>
</svg>
