<svg width="291" height="260" viewBox="0 0 291 260" fill="none" xmlns="http://www.w3.org/2000/svg">
<path fill-rule="evenodd" clip-rule="evenodd" d="M72.7433 4.3474C77.6997 1.49578 83.3218 -0.0036453 89.0438 6.65502e-06H201.978C207.693 0.00395828 213.306 1.50699 218.254 4.35823C223.202 7.20948 227.311 11.3086 230.168 16.2441L286.635 113.709C289.495 118.648 291 124.25 291 129.953C291 135.656 289.495 141.258 286.635 146.197L230.19 243.662C227.329 248.604 223.213 252.707 218.257 255.559C213.3 258.41 207.678 259.91 201.956 259.906H183.554C183.547 224.004 183.127 193.633 161.591 156.579C160.613 154.898 159.662 153.294 158.738 151.76C169.113 150.636 178.912 148.203 187.446 143.952C196.321 139.532 204.032 133.035 209.27 123.951C214.495 114.89 216.721 104.193 216.189 92.2277C215.52 77.1829 211.139 64.676 203.108 55.2113C195.085 45.757 184.423 40.5231 173.327 38.2018C151.729 33.6834 126.714 39.7137 107.127 49.223L98.854 53.239L99.6093 62.3998C102.076 92.3248 104.858 109.198 109.915 122.363C74.8931 116.132 38.1242 102.27 17.7501 90.5958L60.81 16.2441C63.6712 11.3022 67.7869 7.19901 72.7433 4.3474ZM4.29371 113.832C1.48042 118.74 0 124.297 0 129.953C0 135.656 1.50528 141.258 4.36453 146.197L60.8315 243.662C63.6892 248.598 67.7981 252.697 72.746 255.548C77.6943 258.399 83.307 259.902 89.0218 259.906H156.692C156.671 224.387 156.037 200.472 138.364 170.065C134.006 162.569 130.244 156.766 126.884 151.736C126.599 151.711 126.314 151.684 126.029 151.658C82.0396 147.535 31.4389 129.41 4.29371 113.832ZM136.602 116.525C132.666 108.135 129.812 96.8781 127.226 69.7483C141.461 64.2925 156.399 62.0897 167.824 64.48C174.374 65.8501 179.243 68.5944 182.622 72.5772C185.993 76.5497 188.888 82.9381 189.354 93.4197C189.705 101.325 188.192 106.738 185.997 110.544C183.817 114.326 180.428 117.451 175.465 119.923C167.397 123.942 155.878 125.863 141.775 125.665C139.676 122.396 138.033 119.575 136.602 116.525Z" fill="white"/>
</svg>
