<svg width="91" height="83" viewBox="0 0 91 83" fill="none" xmlns="http://www.w3.org/2000/svg">
<mask id="path-1-inside-1_3_161" fill="white">
<path d="M73.7965 4.35313C76.7676 6.71384 78.8151 10.5269 79.6523 14.5199L79.9481 14.6397L89.2528 19.0015C89.7726 19.244 90.2131 19.6319 90.5227 20.1195C90.8322 20.6072 90.9978 21.1743 91 21.7542V78.7755C90.9967 79.2491 90.8851 79.7156 90.674 80.1382C90.4629 80.5608 90.1581 80.9282 89.7834 81.2114C89.4087 81.4946 88.9743 81.686 88.5144 81.7705C88.0545 81.8551 87.5815 81.8305 87.1325 81.6987L61.3386 74.3215L30.6716 82.8883C30.1184 83.0433 29.5333 83.0369 28.9835 82.8698L2.1567 74.7779C1.53663 74.5934 0.991853 74.2111 0.603309 73.6877C0.214764 73.1644 0.00318345 72.528 0 71.8732L0 13.8282C0 11.7995 1.9474 10.3425 3.89025 10.9142L29.8344 18.5727L43.0203 14.483C43.2023 14.4276 43.3873 14.3892 43.5754 14.3677C44.0849 11.343 45.5091 8.43826 47.8979 5.60725C50.7325 2.2414 55.7057 0.267991 60.5514 0.0328421C65.5791 -0.211528 69.4194 0.876612 73.7919 4.34852M6.06515 17.8996V69.6093L28.2237 76.2903V24.433L6.06515 17.8996ZM43.4161 20.7306L34.2888 23.557V75.5618L57.3346 69.1344V53.9419C57.3346 52.2636 58.695 50.9034 60.3694 50.9034C62.0438 50.9034 63.3997 52.2636 63.3997 53.9465V68.5949L84.9349 74.7503V23.6861L79.8389 21.2885C79.7539 21.7956 79.6432 22.2921 79.5067 22.7777C78.521 26.3146 76.8608 29.6213 74.62 32.5111L63.3497 46.7722C63.0529 47.1471 62.6739 47.4467 62.2428 47.6472C61.8117 47.8477 61.3404 47.9434 60.8664 47.9268C60.3924 47.9103 59.9287 47.7819 59.5122 47.5518C59.0958 47.3217 58.7381 46.9963 58.4675 46.6016L47.9342 31.1417C46.1931 28.6857 44.9783 26.4786 44.2897 24.5206C43.8568 23.2952 43.5637 22.0235 43.4161 20.7306ZM60.8426 6.10983C57.5393 6.2712 54.145 7.61755 52.5298 9.53102C50.5869 11.8364 49.6314 13.9942 49.4403 16.1797C49.2128 18.8125 49.3675 20.6706 50.0136 22.5103C50.4914 23.8705 51.4423 25.5949 52.9119 27.6744L61.152 39.7638L69.8425 28.7671C71.5969 26.4973 72.8968 23.902 73.6691 21.1271C74.7611 17.254 73.114 11.5644 70.0291 9.12066C66.8668 6.60779 64.4781 5.93001 60.8472 6.10983M61.4751 9.32353C66.4983 9.32353 70.5751 13.4041 70.5751 18.439C70.5594 20.8701 69.5923 23.1955 67.8861 24.9046C66.1799 26.6137 63.8741 27.5668 61.4751 27.5545C56.4519 27.5545 52.375 23.474 52.375 18.439C52.375 13.4041 56.4519 9.32353 61.4751 9.32353ZM61.4751 15.4005C61.0789 15.3981 60.6861 15.4748 60.3192 15.6261C59.9523 15.7775 59.6184 16.0007 59.3366 16.2828C59.0548 16.565 58.8306 16.9006 58.6768 17.2706C58.523 17.6405 58.4426 18.0376 58.4402 18.439C58.4402 20.1173 59.8007 21.4775 61.4751 21.4775C61.8712 21.4793 62.2638 21.4021 62.6305 21.2501C62.9972 21.0982 63.3308 20.8745 63.6122 20.5919C63.8935 20.3094 64.1173 19.9734 64.2705 19.6032C64.4238 19.233 64.5036 18.8358 64.5054 18.4344C64.4993 17.6253 64.177 16.8515 63.609 16.2828C63.0409 15.7141 62.2736 15.3968 61.4751 15.4005Z"/>
</mask>
<path d="M73.7965 4.35313C76.7676 6.71384 78.8151 10.5269 79.6523 14.5199L79.9481 14.6397L89.2528 19.0015C89.7726 19.244 90.2131 19.6319 90.5227 20.1195C90.8322 20.6072 90.9978 21.1743 91 21.7542V78.7755C90.9967 79.2491 90.8851 79.7156 90.674 80.1382C90.4629 80.5608 90.1581 80.9282 89.7834 81.2114C89.4087 81.4946 88.9743 81.686 88.5144 81.7705C88.0545 81.8551 87.5815 81.8305 87.1325 81.6987L61.3386 74.3215L30.6716 82.8883C30.1184 83.0433 29.5333 83.0369 28.9835 82.8698L2.1567 74.7779C1.53663 74.5934 0.991853 74.2111 0.603309 73.6877C0.214764 73.1644 0.00318345 72.528 0 71.8732L0 13.8282C0 11.7995 1.9474 10.3425 3.89025 10.9142L29.8344 18.5727L43.0203 14.483C43.2023 14.4276 43.3873 14.3892 43.5754 14.3677C44.0849 11.343 45.5091 8.43826 47.8979 5.60725C50.7325 2.2414 55.7057 0.267991 60.5514 0.0328421C65.5791 -0.211528 69.4194 0.876612 73.7919 4.34852M6.06515 17.8996V69.6093L28.2237 76.2903V24.433L6.06515 17.8996ZM43.4161 20.7306L34.2888 23.557V75.5618L57.3346 69.1344V53.9419C57.3346 52.2636 58.695 50.9034 60.3694 50.9034C62.0438 50.9034 63.3997 52.2636 63.3997 53.9465V68.5949L84.9349 74.7503V23.6861L79.8389 21.2885C79.7539 21.7956 79.6432 22.2921 79.5067 22.7777C78.521 26.3146 76.8608 29.6213 74.62 32.5111L63.3497 46.7722C63.0529 47.1471 62.6739 47.4467 62.2428 47.6472C61.8117 47.8477 61.3404 47.9434 60.8664 47.9268C60.3924 47.9103 59.9287 47.7819 59.5122 47.5518C59.0958 47.3217 58.7381 46.9963 58.4675 46.6016L47.9342 31.1417C46.1931 28.6857 44.9783 26.4786 44.2897 24.5206C43.8568 23.2952 43.5637 22.0235 43.4161 20.7306ZM60.8426 6.10983C57.5393 6.2712 54.145 7.61755 52.5298 9.53102C50.5869 11.8364 49.6314 13.9942 49.4403 16.1797C49.2128 18.8125 49.3675 20.6706 50.0136 22.5103C50.4914 23.8705 51.4423 25.5949 52.9119 27.6744L61.152 39.7638L69.8425 28.7671C71.5969 26.4973 72.8968 23.902 73.6691 21.1271C74.7611 17.254 73.114 11.5644 70.0291 9.12066C66.8668 6.60779 64.4781 5.93001 60.8472 6.10983M61.4751 9.32353C66.4983 9.32353 70.5751 13.4041 70.5751 18.439C70.5594 20.8701 69.5923 23.1955 67.8861 24.9046C66.1799 26.6137 63.8741 27.5668 61.4751 27.5545C56.4519 27.5545 52.375 23.474 52.375 18.439C52.375 13.4041 56.4519 9.32353 61.4751 9.32353ZM61.4751 15.4005C61.0789 15.3981 60.6861 15.4748 60.3192 15.6261C59.9523 15.7775 59.6184 16.0007 59.3366 16.2828C59.0548 16.565 58.8306 16.9006 58.6768 17.2706C58.523 17.6405 58.4426 18.0376 58.4402 18.439C58.4402 20.1173 59.8007 21.4775 61.4751 21.4775C61.8712 21.4793 62.2638 21.4021 62.6305 21.2501C62.9972 21.0982 63.3308 20.8745 63.6122 20.5919C63.8935 20.3094 64.1173 19.9734 64.2705 19.6032C64.4238 19.233 64.5036 18.8358 64.5054 18.4344C64.4993 17.6253 64.177 16.8515 63.609 16.2828C63.0409 15.7141 62.2736 15.3968 61.4751 15.4005Z" fill="#1C597C"/>
<path d="M79.6523 14.5199L78.6736 14.7251L78.7829 15.2465L79.2766 15.4466L79.6523 14.5199ZM79.9481 14.6397L80.3725 13.7343L80.3484 13.723L80.3237 13.713L79.9481 14.6397ZM89.2528 19.0015L88.8284 19.907L88.83 19.9078L89.2528 19.0015ZM91 21.7542H92L92 21.7504L91 21.7542ZM91 78.7755L92 78.7825V78.7755H91ZM87.1325 81.6987L87.4142 80.7392L87.4075 80.7373L87.1325 81.6987ZM61.3386 74.3215L61.6135 73.36L61.3418 73.2823L61.0695 73.3583L61.3386 74.3215ZM30.6716 82.8883L30.4025 81.9251L30.4017 81.9254L30.6716 82.8883ZM28.9835 82.8698L29.2742 81.913L29.2723 81.9124L28.9835 82.8698ZM2.1567 74.7779L2.44549 73.8205L2.44197 73.8195L2.1567 74.7779ZM0 71.8732H-1.00001L-0.999988 71.878L0 71.8732ZM3.89025 10.9142L4.17336 9.95516L4.17256 9.95492L3.89025 10.9142ZM29.8344 18.5727L29.5512 19.5318L29.8415 19.6175L30.1306 19.5278L29.8344 18.5727ZM43.0203 14.483L42.7294 13.5262L42.724 13.5279L43.0203 14.483ZM43.5754 14.3677L43.689 15.3612L44.4365 15.2757L44.5615 14.5338L43.5754 14.3677ZM47.8979 5.60725L48.6621 6.25214L48.6627 6.25142L47.8979 5.60725ZM60.5514 0.0328421L60.5999 1.03167L60.5999 1.03166L60.5514 0.0328421ZM6.06515 17.8996L6.34796 16.9404L5.06515 16.5621V17.8996H6.06515ZM6.06515 69.6093H5.06515V70.3522L5.77648 70.5667L6.06515 69.6093ZM28.2237 76.2903L27.935 77.2477L29.2237 77.6362V76.2903H28.2237ZM28.2237 24.433H29.2237V23.6853L28.5065 23.4738L28.2237 24.433ZM43.4161 20.7306L44.4097 20.6172L44.2728 19.4184L43.1203 19.7753L43.4161 20.7306ZM34.2888 23.557L33.993 22.6017L33.2888 22.8198V23.557H34.2888ZM34.2888 75.5618H33.2888V76.8788L34.5574 76.525L34.2888 75.5618ZM57.3346 69.1344L57.6032 70.0976L58.3346 69.8936V69.1344H57.3346ZM63.3997 68.5949H62.3997V69.3491L63.1249 69.5564L63.3997 68.5949ZM84.9349 74.7503L84.66 75.7118L85.9349 76.0762V74.7503H84.9349ZM84.9349 23.6861H85.9349V23.0514L85.3606 22.7812L84.9349 23.6861ZM79.8389 21.2885L80.2646 20.3836L79.0705 19.8218L78.8526 21.1233L79.8389 21.2885ZM79.5067 22.7777L78.544 22.5072L78.5434 22.5093L79.5067 22.7777ZM74.62 32.5111L75.4046 33.1311L75.4102 33.1238L74.62 32.5111ZM63.3497 46.7722L64.1338 47.3927L64.1342 47.3922L63.3497 46.7722ZM58.4675 46.6016L57.6411 47.1646L57.6426 47.1669L58.4675 46.6016ZM47.9342 31.1417L48.7607 30.5786L48.7554 30.5709L48.75 30.5633L47.9342 31.1417ZM44.2897 24.5206L45.2331 24.1889L45.2326 24.1875L44.2897 24.5206ZM52.5298 9.53102L51.7656 8.88597L51.7651 8.88659L52.5298 9.53102ZM49.4403 16.1797L48.4441 16.0926L48.444 16.0936L49.4403 16.1797ZM50.0136 22.5103L49.0701 22.8417L49.0701 22.8417L50.0136 22.5103ZM52.9119 27.6744L53.7383 27.1112L53.7335 27.1041L53.7286 27.0972L52.9119 27.6744ZM61.152 39.7638L60.3257 40.327L61.0924 41.452L61.9366 40.3838L61.152 39.7638ZM69.8425 28.7671L70.6271 29.3872L70.6337 29.3787L69.8425 28.7671ZM73.6691 21.1271L72.7066 20.8557L72.7057 20.859L73.6691 21.1271ZM70.0291 9.12066L69.4069 9.90357L69.4081 9.90452L70.0291 9.12066ZM70.5751 18.439L71.5751 18.4454V18.439H70.5751ZM61.4751 27.5545L61.4802 26.5545H61.4751V27.5545ZM61.4751 15.4005L61.4689 16.4006L61.4797 16.4005L61.4751 15.4005ZM58.4402 18.439L57.4402 18.4331V18.439H58.4402ZM61.4751 21.4775L61.4796 20.4775H61.4751V21.4775ZM64.5054 18.4344L65.5054 18.4389L65.5053 18.427L64.5054 18.4344ZM73.1744 5.13608C75.9225 7.31957 77.8725 10.9042 78.6736 14.7251L80.631 14.3147C79.7578 10.1497 77.6127 6.10811 74.4185 3.57018L73.1744 5.13608ZM79.2766 15.4466L79.5724 15.5665L80.3237 13.713L80.028 13.5931L79.2766 15.4466ZM79.5236 15.5452L88.8284 19.907L89.6772 18.0961L80.3725 13.7343L79.5236 15.5452ZM88.83 19.9078C89.1755 20.0689 89.4704 20.3277 89.6784 20.6554L91.367 19.5836C90.9559 18.9361 90.3696 18.4191 89.6756 18.0953L88.83 19.9078ZM89.6784 20.6554C89.8865 20.9833 89.9985 21.3658 90 21.7579L92 21.7504C91.9971 20.9828 91.7779 20.2311 91.367 19.5836L89.6784 20.6554ZM90 21.7542V78.7755H92V21.7542H90ZM90 78.7684C89.9978 79.0898 89.922 79.4058 89.7794 79.6914L91.5686 80.585C91.8481 80.0254 91.9956 79.4085 92 78.7825L90 78.7684ZM89.7794 79.6914C89.6367 79.977 89.4314 80.2239 89.1804 80.4136L90.3864 82.0091C90.8848 81.6324 91.2891 81.1447 91.5686 80.585L89.7794 79.6914ZM89.1804 80.4136C88.9295 80.6033 88.6396 80.7308 88.3336 80.787L88.6952 82.754C89.3091 82.6412 89.8879 82.3859 90.3864 82.0091L89.1804 80.4136ZM88.3336 80.787C88.0277 80.8432 87.7131 80.8269 87.4141 80.7392L86.8509 82.6582C87.4499 82.8341 88.0813 82.8669 88.6952 82.754L88.3336 80.787ZM87.4075 80.7373L61.6135 73.36L61.0636 75.2829L86.8575 82.6601L87.4075 80.7373ZM61.0695 73.3583L30.4025 81.9251L30.9406 83.8514L61.6076 75.2846L61.0695 73.3583ZM30.4017 81.9254C30.0322 82.0289 29.6416 82.0247 29.2742 81.913L28.6928 83.8266C29.4249 84.0491 30.2045 84.0576 30.9414 83.8512L30.4017 81.9254ZM29.2723 81.9124L2.44548 73.8205L1.86792 75.7353L28.6947 83.8272L29.2723 81.9124ZM2.44197 73.8195C2.03073 73.6971 1.66694 73.4428 1.4062 73.0916L-0.199585 74.2839C0.316771 74.9793 1.04253 75.4897 1.87144 75.7364L2.44197 73.8195ZM1.4062 73.0916C1.14532 72.7402 1.00214 72.3112 0.999988 71.8683L-0.999988 71.878C-0.995774 72.7449 -0.715787 73.5886 -0.199585 74.2839L1.4062 73.0916ZM1 71.8732V13.8282H-1V71.8732H1ZM1 13.8282C1 12.4663 2.30648 11.4906 3.60794 11.8736L4.17256 9.95492C1.58832 9.19444 -1 11.1328 -1 13.8282H1ZM3.60714 11.8733L29.5512 19.5318L30.1175 17.6136L4.17336 9.95516L3.60714 11.8733ZM30.1306 19.5278L43.3165 15.4381L42.724 13.5279L29.5381 17.6176L30.1306 19.5278ZM43.3111 15.4397C43.4356 15.4019 43.5613 15.3758 43.689 15.3612L43.4617 13.3742C43.2133 13.4026 42.9689 13.4534 42.7294 13.5262L43.3111 15.4397ZM44.5615 14.5338C45.0361 11.7168 46.3667 8.97259 48.6621 6.25214L47.1336 4.96237C44.6515 7.90394 43.1338 10.9693 42.5892 14.2016L44.5615 14.5338ZM48.6627 6.25142C51.2699 3.15564 55.9468 1.25747 60.5999 1.03167L60.5029 -0.965983C55.4645 -0.721484 50.1951 1.32716 47.133 4.96309L48.6627 6.25142ZM60.5999 1.03166C65.3924 0.798728 68.9928 1.81483 73.1701 5.13166L74.4137 3.56537C69.8459 -0.0616061 65.7659 -1.22178 60.5029 -0.965979L60.5999 1.03166ZM5.06515 17.8996V69.6093H7.06515V17.8996H5.06515ZM5.77648 70.5667L27.935 77.2477L28.5123 75.3328L6.35382 68.6518L5.77648 70.5667ZM29.2237 76.2903V24.433H27.2237V76.2903H29.2237ZM28.5065 23.4738L6.34796 16.9404L5.78234 18.8587L27.9408 25.3922L28.5065 23.4738ZM43.1203 19.7753L33.993 22.6017L34.5846 24.5122L43.7119 21.6858L43.1203 19.7753ZM33.2888 23.557V75.5618H35.2888V23.557H33.2888ZM34.5574 76.525L57.6032 70.0976L57.0659 68.1711L34.0202 74.5985L34.5574 76.525ZM58.3346 69.1344V53.9419H56.3346V69.1344H58.3346ZM58.3346 53.9419C58.3346 52.8151 59.248 51.9034 60.3694 51.9034V49.9034C58.142 49.9034 56.3346 51.712 56.3346 53.9419H58.3346ZM60.3694 51.9034C61.4879 51.9034 62.3997 52.8122 62.3997 53.9465H64.3997C64.3997 51.715 62.5997 49.9034 60.3694 49.9034V51.9034ZM62.3997 53.9465V68.5949H64.3997V53.9465H62.3997ZM63.1249 69.5564L84.66 75.7118L85.2097 73.7888L63.6745 67.6334L63.1249 69.5564ZM85.9349 74.7503V23.6861H83.9349V74.7503H85.9349ZM85.3606 22.7812L80.2646 20.3836L79.4131 22.1933L84.5091 24.5909L85.3606 22.7812ZM78.8526 21.1233C78.7735 21.5956 78.6706 22.0569 78.544 22.5072L80.4694 23.0483C80.6158 22.5273 80.7344 21.9957 80.8251 21.4536L78.8526 21.1233ZM78.5434 22.5093C77.5924 25.9217 75.9908 29.1114 73.8298 31.8983L75.4102 33.1238C77.7308 30.1312 79.4496 26.7074 80.47 23.0462L78.5434 22.5093ZM73.8354 31.891L62.5651 46.1521L64.1342 47.3922L75.4046 33.1311L73.8354 31.891ZM62.5655 46.1516C62.365 46.4049 62.1099 46.6062 61.8212 46.7404L62.6645 48.554C63.2379 48.2873 63.7408 47.8893 64.1338 47.3927L62.5655 46.1516ZM61.8212 46.7404C61.5325 46.8747 61.2176 46.9385 60.9013 46.9275L60.8315 48.9262C61.4632 48.9483 62.0909 48.8206 62.6645 48.554L61.8212 46.7404ZM60.9013 46.9275C60.585 46.9164 60.275 46.8307 59.9958 46.6765L59.0286 48.4271C59.5824 48.733 60.1997 48.9042 60.8315 48.9262L60.9013 46.9275ZM59.9958 46.6765C59.7166 46.5222 59.4754 46.3033 59.2924 46.0363L57.6426 47.1669C58.0007 47.6894 58.475 48.1212 59.0286 48.4271L59.9958 46.6765ZM59.2939 46.0385L48.7607 30.5786L47.1078 31.7047L57.6411 47.1646L59.2939 46.0385ZM48.75 30.5633C47.0408 28.1523 45.8803 26.0295 45.2331 24.1889L43.3463 24.8524C44.0762 26.9278 45.3454 29.219 47.1185 31.72L48.75 30.5633ZM45.2326 24.1875C44.8248 23.0333 44.5487 21.8353 44.4097 20.6172L42.4226 20.844C42.5787 22.2118 42.8887 23.5571 43.3468 24.8537L45.2326 24.1875ZM60.7938 5.11102C57.3273 5.28037 53.6222 6.68661 51.7656 8.88597L53.2939 10.1761C54.6678 8.54849 57.7513 7.26204 60.8914 7.10864L60.7938 5.11102ZM51.7651 8.88659C49.7246 11.3078 48.6574 13.6536 48.4441 16.0926L50.4365 16.2668C50.6054 14.3348 51.4492 12.365 53.2944 10.1754L51.7651 8.88659ZM48.444 16.0936C48.209 18.813 48.3617 20.8245 49.0701 22.8417L50.9571 22.179C50.3733 20.5167 50.2166 18.812 50.4366 16.2658L48.444 16.0936ZM49.0701 22.8417C49.5916 24.3263 50.6009 26.1371 52.0953 28.2515L53.7286 27.0972C52.2837 25.0528 51.3911 23.4147 50.9571 22.1789L49.0701 22.8417ZM52.0856 28.2376L60.3257 40.327L61.9783 39.2006L53.7383 27.1112L52.0856 28.2376ZM61.9366 40.3838L70.6271 29.3872L69.0579 28.1471L60.3674 39.1438L61.9366 40.3838ZM70.6337 29.3787C72.4675 27.0062 73.8257 24.2942 74.6324 21.3952L72.7057 20.859C71.9679 23.5099 70.7263 25.9885 69.0513 28.1556L70.6337 29.3787ZM74.6315 21.3985C75.2418 19.2341 75.0735 16.6442 74.3735 14.3016C73.6748 11.9629 72.4022 9.72481 70.65 8.3368L69.4081 9.90452C70.7408 10.9602 71.8342 12.7888 72.4572 14.8741C73.0791 16.9555 73.1883 19.147 72.7066 20.8557L74.6315 21.3985ZM70.6512 8.33775C69.0079 7.03195 67.5136 6.16153 65.9176 5.65273C64.3206 5.14364 62.6871 5.01748 60.7977 5.11105L60.8966 7.1086C62.6381 7.02236 64.0144 7.14518 65.3101 7.55824C66.6067 7.97159 67.8879 8.6965 69.4069 9.90357L70.6512 8.33775ZM61.4751 10.3235C65.9446 10.3235 69.5751 13.955 69.5751 18.439H71.5751C71.5751 12.8531 67.0519 8.32353 61.4751 8.32353V10.3235ZM69.5751 18.4326C69.5611 20.6029 68.6976 22.6763 67.1784 24.1981L68.5938 25.6111C70.487 23.7147 71.5577 21.1372 71.575 18.4454L69.5751 18.4326ZM67.1784 24.1981C65.6596 25.7194 63.61 26.5654 61.4802 26.5545L61.4699 28.5545C64.1383 28.5681 66.7002 27.508 68.5938 25.6111L67.1784 24.1981ZM61.4751 26.5545C57.0055 26.5545 53.375 22.9231 53.375 18.439H51.375C51.375 24.0249 55.8982 28.5545 61.4751 28.5545V26.5545ZM53.375 18.439C53.375 13.955 57.0055 10.3235 61.4751 10.3235V8.32353C55.8982 8.32353 51.375 12.8531 51.375 18.439H53.375ZM61.4812 14.4005C60.9519 14.3973 60.4274 14.4997 59.9378 14.7017L60.7006 16.5506C60.9449 16.4498 61.2059 16.3989 61.4689 16.4005L61.4812 14.4005ZM59.9378 14.7017C59.4483 14.9037 59.0037 15.201 58.6291 15.5761L60.0441 16.9895C60.2331 16.8003 60.4563 16.6514 60.7006 16.5506L59.9378 14.7017ZM58.6291 15.5761C58.2545 15.9512 57.9571 16.3966 57.7534 16.8867L59.6002 17.6545C59.704 17.4046 59.8551 17.1787 60.0441 16.9895L58.6291 15.5761ZM57.7534 16.8867C57.5497 17.3767 57.4434 17.9021 57.4402 18.4331L59.4402 18.4449C59.4418 18.173 59.4963 17.9044 59.6002 17.6545L57.7534 16.8867ZM57.4402 18.439C57.4402 20.6689 59.2476 22.4775 61.4751 22.4775V20.4775C60.3537 20.4775 59.4402 19.5658 59.4402 18.439H57.4402ZM61.4705 22.4775C61.9998 22.4799 62.5241 22.3767 63.0133 22.1739L62.2477 20.3263C62.0036 20.4275 61.7426 20.4787 61.4796 20.4775L61.4705 22.4775ZM63.0133 22.1739C63.5025 21.9712 63.9467 21.6732 64.3207 21.2976L62.9036 19.8863C62.7148 20.0758 62.4919 20.2251 62.2477 20.3263L63.0133 22.1739ZM64.3207 21.2976C64.6948 20.9219 64.9915 20.476 65.1945 19.9857L63.3466 19.2207C63.243 19.4707 63.0923 19.6968 62.9036 19.8863L64.3207 21.2976ZM65.1945 19.9857C65.3975 19.4954 65.503 18.9698 65.5053 18.4389L63.5054 18.4299C63.5042 18.7019 63.4501 18.9706 63.3466 19.2207L65.1945 19.9857ZM65.5053 18.427C65.4974 17.3574 65.0714 16.3319 64.3165 15.5761L62.9014 16.9895C63.2826 17.3711 63.5013 17.8931 63.5054 18.4418L65.5053 18.427ZM64.3165 15.5761C63.5612 14.8199 62.5379 14.3956 61.4704 14.4005L61.4797 16.4005C62.0092 16.3981 62.5207 16.6083 62.9014 16.9895L64.3165 15.5761Z" fill="#1C597C" mask="url(#path-1-inside-1_3_161)"/>
</svg>
