<svg width="100" height="100" viewBox="0 0 100 100" fill="none" xmlns="http://www.w3.org/2000/svg">
<path d="M18.9067 44.3054L10.1049 52.0902C8.92274 53.1325 8.13835 54.5524 7.88524 56.1079C7.63212 57.6635 7.92593 59.2588 8.71664 60.6221L16.6846 74.601C17.4654 75.9528 18.6895 76.9932 20.1495 77.5457C21.6096 78.0983 23.2158 78.1291 24.6959 77.633L35.7682 73.8587L18.9067 44.3054Z" stroke="#1C597C" stroke-width="6" stroke-linecap="round" stroke-linejoin="round"/>
<path d="M36.7852 14.2799C34.5844 21.0391 31.8274 27.6043 28.5425 33.9082C26.0787 38.0005 22.7967 41.5401 18.9019 44.3055L35.7681 73.7672C40.1305 71.757 44.8583 70.6612 49.6602 70.5473C56.7171 70.8654 63.7355 71.7523 70.6429 73.2081" stroke="#1C597C" stroke-width="6" stroke-linecap="round" stroke-linejoin="round"/>
<path d="M9.3193 61.6438L6.3982 63.3694C5.62075 63.8152 4.93987 64.4113 4.39531 65.1231C3.85074 65.8348 3.45339 66.6479 3.22645 67.5149C2.99592 68.3822 2.9407 69.2868 3.06402 70.1757C3.18735 71.0647 3.48674 71.9201 3.94467 72.6919C4.38521 73.47 4.97599 74.1527 5.68267 74.7005C6.38936 75.2484 7.19786 75.6503 8.06121 75.8829C8.92358 76.1149 9.82384 76.1709 10.7083 76.0475C11.5928 75.9241 12.4433 75.6238 13.2093 75.1647L15.9424 73.439M39.0991 72.4605L47.2984 86.7768C48.1751 88.3454 48.4093 90.1929 47.9517 91.9307C47.4941 93.6684 46.3804 95.161 44.8449 96.0944C44.0721 96.5403 43.2187 96.8289 42.3339 96.9437C41.449 97.0585 40.5503 96.9973 39.6892 96.7634C38.8282 96.5296 38.0219 96.1277 37.3167 95.5811C36.6115 95.0345 36.0214 94.3538 35.5803 93.5782L26.3157 77.1217M86.8104 25.3758L74.7693 32.3653M97.0005 49.3857H83.1036M70.3684 3L63.4175 15.1231M36.7613 14.2843L42.6179 10.8812C43.3868 10.4323 44.2372 10.1406 45.1198 10.023C46.0023 9.90536 46.8994 9.96418 47.759 10.196C48.6186 10.4278 49.4237 10.8281 50.1274 11.3735C50.8311 11.9189 51.4195 12.5987 51.8584 13.3733L78.8859 60.4869C79.7639 62.0498 79.9937 63.8949 79.5259 65.6255C79.0581 67.3561 77.93 68.8341 76.3841 69.7419L70.5275 73.1498L36.7613 14.2843Z" stroke="#1C597C" stroke-width="6" stroke-linecap="round" stroke-linejoin="round"/>
</svg>
