<svg width="94" height="94" viewBox="0 0 94 94" fill="none" xmlns="http://www.w3.org/2000/svg">
<path d="M73.3685 16.5916L73.7533 16.2072L73.3381 15.856C65.3034 9.06126 54.9535 5.63476 44.4514 6.29266C33.9494 6.95055 24.1081 11.6419 16.9842 19.3863C9.86029 27.1307 6.00521 37.3287 6.22464 47.849C6.44406 58.3694 10.721 68.3978 18.1616 75.8384C25.6022 83.279 35.6306 87.5559 46.151 87.7754C56.6713 87.9948 66.8693 84.1397 74.6137 77.0158C82.3581 69.8919 87.0494 60.0506 87.7073 49.5486C88.3652 39.0466 84.9387 28.6966 78.144 20.6619L77.793 20.2469L77.4086 20.6313L60.8915 37.1484L53.1298 44.9101L52.9256 45.1143L53.0004 45.3931C53.3546 46.7145 53.2628 48.1158 52.7394 49.3797C52.216 50.6437 51.2901 51.6995 50.1054 52.3836C48.9207 53.0677 47.5433 53.3417 46.187 53.1631C44.8307 52.9846 43.5712 52.3635 42.6038 51.3962C41.6365 50.4288 41.0154 49.1693 40.8369 47.813C40.6583 46.4567 40.9323 45.0793 41.6164 43.8946C42.3005 42.7099 43.3563 41.784 44.6203 41.2606C45.8842 40.7372 47.2855 40.6454 48.6069 40.9996L48.8858 41.0744L49.0899 40.8702L54.1726 35.7875L54.6291 35.331L54.073 35.0032C51.1527 33.2817 47.7048 32.6843 44.3756 33.323C41.0463 33.9616 38.0643 35.7925 35.9883 38.4724C33.9124 41.1524 32.885 44.4974 33.0988 47.8806C33.3126 51.2638 34.7529 54.4529 37.1498 56.8502L37.1497 56.8502L37.156 56.8563C37.4289 57.1199 37.6465 57.4351 37.7963 57.7837C37.946 58.1323 38.0248 58.5072 38.0281 58.8866C38.0314 59.2659 37.9591 59.6422 37.8155 59.9933C37.6718 60.3444 37.4597 60.6634 37.1914 60.9317C36.9231 61.2 36.6041 61.4121 36.253 61.5558C35.9019 61.6994 35.5257 61.7717 35.1463 61.7684C34.7669 61.7651 34.392 61.6863 34.0434 61.5366C33.6948 61.3868 33.3796 61.1692 33.116 60.8963L33.1161 60.8962L33.1094 60.8896C29.618 57.4084 27.5635 52.7417 27.3536 47.8159C27.1437 42.89 28.7939 38.0654 31.9764 34.2999C35.159 30.5344 39.6412 28.1034 44.5332 27.4896C49.4251 26.8758 54.369 28.1241 58.3832 30.9866L58.7278 31.2323L59.027 30.9331L63.821 26.1391L64.222 25.7382L63.774 25.3905C60.3346 22.7213 56.3078 20.9114 52.0283 20.1114C47.7487 19.3114 43.34 19.5443 39.1686 20.7908C34.9972 22.0373 31.1835 24.2613 28.0445 27.2782C24.9055 30.295 22.5318 34.0174 21.1208 38.1361C19.7097 42.2548 19.302 46.6507 19.9316 50.9587C20.5612 55.2666 22.2098 59.362 24.7405 62.9047C27.2712 66.4473 30.6108 69.3348 34.4819 71.3271C38.3529 73.3195 42.6436 74.3592 46.9973 74.3598C47.7551 74.3598 48.4818 74.6608 49.0177 75.1966C49.5535 75.7324 49.8545 76.4592 49.8545 77.2169C49.8545 77.9747 49.5535 78.7014 49.0177 79.2372C48.4818 79.773 47.7551 80.0741 46.9973 80.0741C41.6984 80.0748 36.4769 78.8023 31.7725 76.3636C27.0681 73.9249 23.0185 70.3915 19.9649 66.061C16.9112 61.7304 14.9429 56.7295 14.2256 51.4794C13.5083 46.2293 14.0631 40.8836 15.8432 35.8927C17.6233 30.9017 20.5766 26.4116 24.4545 22.8004C28.3323 19.1892 33.0211 16.5626 38.1261 15.142C43.231 13.7213 48.6025 13.5481 53.7883 14.637C58.9742 15.7259 63.8224 18.0449 67.9249 21.3988L68.275 21.6851L68.5949 21.3652L73.3618 16.5983L73.362 16.5981L73.3685 16.5916ZM77.4482 11.8553L77.8 12.1601L78.1292 11.8309L80.5866 9.37352L80.5866 9.37358L80.5927 9.36732C80.8562 9.09444 81.1715 8.87678 81.5201 8.72704C81.8687 8.5773 82.2436 8.49848 82.623 8.49518C83.0023 8.49188 83.3786 8.56417 83.7297 8.70783C84.0808 8.85149 84.3998 9.06365 84.6681 9.33191C84.9363 9.60017 85.1485 9.91918 85.2922 10.2703C85.4358 10.6214 85.5081 10.9977 85.5048 11.377C85.5015 11.7564 85.4227 12.1313 85.273 12.4799L85.7324 12.6773L85.273 12.4799C85.1232 12.8285 84.9056 13.1438 84.6327 13.4073L84.6326 13.4073L84.6265 13.4134L82.1691 15.8708L81.8399 16.2L82.1447 16.5518C90.0317 25.6553 94.0785 37.4641 93.4331 49.4916C92.7877 61.5192 87.5005 72.8271 78.6845 81.0343C69.8686 89.2416 58.212 93.7078 46.1691 93.4926C34.1261 93.2773 22.6365 88.3975 14.1195 79.8805C5.60252 71.3635 0.722659 59.8739 0.507433 47.8309C0.292206 35.788 4.75841 24.1314 12.9657 15.3155C21.1729 6.49955 32.4808 1.21226 44.5084 0.56686C56.5359 -0.0785437 68.3447 3.9683 77.4482 11.8553Z" fill="#1C597C" stroke="#1C597C"/>
</svg>
