<svg width="97" height="97" viewBox="0 0 97 97" fill="none" xmlns="http://www.w3.org/2000/svg">
<path d="M32.4426 64.4543H26.1207V58.1202C26.1232 55.6011 27.1231 53.1859 28.9009 51.4046C30.6788 49.6234 33.0893 48.6215 35.6035 48.619H54.569V54.9532H35.6035C34.7652 54.9532 33.9612 55.2868 33.3684 55.8808C32.7756 56.4747 32.4426 57.2803 32.4426 58.1202V64.4543ZM45.0862 45.452C42.5856 45.452 40.141 44.709 38.0618 43.317C35.9826 41.925 34.362 39.9465 33.405 37.6317C32.448 35.3168 32.1977 32.7697 32.6855 30.3123C33.1734 27.8549 34.3776 25.5976 36.1458 23.8259C37.9141 22.0542 40.167 20.8477 42.6196 20.3589C45.0722 19.8701 47.6144 20.121 49.9248 21.0798C52.2351 22.0386 54.2098 23.6623 55.5991 25.7456C56.9884 27.8289 57.7299 30.2782 57.7299 32.7837C57.7257 36.1423 56.3923 39.362 54.0221 41.7369C51.6518 44.1117 48.4383 45.4478 45.0862 45.452ZM45.0862 26.4496C43.8359 26.4496 42.6136 26.8211 41.574 27.5171C40.5344 28.2131 39.7241 29.2024 39.2456 30.3598C38.7671 31.5172 38.6419 32.7908 38.8859 34.0195C39.1298 35.2482 39.7319 36.3768 40.616 37.2626C41.5002 38.1485 42.6266 38.7517 43.8529 38.9961C45.0792 39.2405 46.3503 39.1151 47.5055 38.6357C48.6607 38.1563 49.648 37.3444 50.3427 36.3028C51.0373 35.2611 51.4081 34.0365 51.4081 32.7837C51.4081 31.1038 50.742 29.4927 49.5565 28.3048C48.3709 27.1169 46.7629 26.4496 45.0862 26.4496ZM73.5345 67.6214C71.0338 67.6214 68.5893 66.8784 66.5101 65.4864C64.4308 64.0944 62.8103 62.1159 61.8533 59.8011C60.8963 57.4863 60.6459 54.9391 61.1338 52.4817C61.6216 50.0243 62.8258 47.767 64.5941 45.9954C66.3623 44.2237 68.6152 43.0171 71.0679 42.5283C73.5205 42.0395 76.0627 42.2904 78.373 43.2492C80.6834 44.208 82.6581 45.8318 84.0474 47.9151C85.4367 49.9983 86.1782 52.4476 86.1782 54.9532C86.174 58.3117 84.8406 61.5315 82.4703 63.9063C80.1001 66.2812 76.8866 67.6172 73.5345 67.6214ZM73.5345 48.619C72.2842 48.619 71.0619 48.9905 70.0223 49.6865C68.9827 50.3825 68.1724 51.3718 67.6939 52.5292C67.2154 53.6866 67.0902 54.9602 67.3342 56.1889C67.5781 57.4176 68.1802 58.5462 69.0643 59.4321C69.9484 60.3179 71.0749 60.9212 72.3012 61.1656C73.5275 61.41 74.7986 61.2845 75.9538 60.8051C77.109 60.3257 78.0963 59.5138 78.7909 58.4722C79.4856 57.4306 79.8564 56.2059 79.8564 54.9532C79.8564 53.2732 79.1903 51.6621 78.0047 50.4743C76.8192 49.2864 75.2112 48.619 73.5345 48.619ZM92.5 86.6238H86.1782V80.2896C86.1782 79.4497 85.8452 78.6441 85.2524 78.0502C84.6596 77.4562 83.8556 77.1226 83.0173 77.1226H64.0518C63.2134 77.1226 62.4094 77.4562 61.8167 78.0502C61.2239 78.6441 60.8908 79.4497 60.8908 80.2896V86.6238H54.569V80.2896C54.5715 77.7705 55.5714 75.3553 57.3492 73.5741C59.127 71.7928 61.5375 70.791 64.0518 70.7885H83.0173C85.5315 70.791 87.942 71.7928 89.7198 73.5741C91.4977 75.3553 92.4975 77.7705 92.5 80.2896V86.6238Z" fill="#1C597C"/>
<path d="M42.7155 85.5719L26.2653 76.8362C21.7378 74.4355 17.9516 70.8523 15.3128 66.4711C12.6739 62.0898 11.2819 57.0755 11.2859 51.9661V11.2621H74.1451V30.0486H80.431V11.2621C80.431 9.60132 79.7688 8.00852 78.5899 6.83414C77.4111 5.65976 75.8122 5 74.1451 5H11.2859C9.61881 5 8.01996 5.65976 6.84113 6.83414C5.66229 8.00852 5.00002 9.60132 5.00002 11.2621V51.9661C4.99268 58.2106 6.69271 64.3392 9.91761 69.6939C13.1425 75.0485 17.7705 79.4271 23.3046 82.3594L42.7155 92.67V85.5719Z" fill="#1C597C"/>
</svg>
